<svg id="icon-2" xmlns="http://www.w3.org/2000/svg" width="110.231" height="110.231" viewBox="0 0 110.231 110.231">
  <path id="Path_24" data-name="Path 24" d="M105.638,18.372V9.645a5.1,5.1,0,0,0-5.052-5.052H45.011L41.337,0H5.052A5.1,5.1,0,0,0,0,5.052V105.179a5.1,5.1,0,0,0,5.052,5.052H105.179a5.1,5.1,0,0,0,5.052-5.052V23.424C110.231,20.668,108.394,18.831,105.638,18.372Zm-4.593-9.186v9.186H55.116L48.226,9.186Zm0,91.86H9.186V9.186H36.744L50.523,27.558h50.523Z" fill="#fefefe"/>
  <rect id="Rectangle_7" data-name="Rectangle 7" width="41" height="4" transform="translate(23 46.231)" fill="#fefefe"/>
  <rect id="Rectangle_8" data-name="Rectangle 8" width="41" height="5" transform="translate(23 59.231)" fill="#fefefe"/>
</svg>
