<svg xmlns="http://www.w3.org/2000/svg" width="114.678" height="94.907" viewBox="0 0 114.678 94.907">
  <path id="icon-1" d="M104.793,98.908H10.885A9.885,9.885,0,0,1,1,89.023V14.885A9.885,9.885,0,0,1,10.885,5h93.908a9.885,9.885,0,0,1,9.885,9.885V89.023A9.885,9.885,0,0,1,104.793,98.908Zm4.943-84.023a4.944,4.944,0,0,0-4.943-4.943H10.885a4.944,4.944,0,0,0-4.943,4.943V29.713H109.735Zm0,19.77H5.943V89.023a4.944,4.944,0,0,0,4.943,4.943h93.908a4.944,4.944,0,0,0,4.943-4.943Zm-9.885,34.6H94.908a2.471,2.471,0,0,1-2.471-2.471V61.839a2.472,2.472,0,0,1,2.471-2.471H99.85a2.471,2.471,0,0,1,2.471,2.471v4.943A2.469,2.469,0,0,1,99.85,69.253Zm0-17.3H94.908a2.471,2.471,0,0,1-2.471-2.471V44.54a2.471,2.471,0,0,1,2.471-2.471H99.85a2.469,2.469,0,0,1,2.471,2.471v4.943A2.469,2.469,0,0,1,99.85,51.954Zm-19.77,17.3H75.138a2.471,2.471,0,0,1-2.471-2.471V61.839a2.472,2.472,0,0,1,2.471-2.471H80.08a2.471,2.471,0,0,1,2.471,2.471v4.943A2.469,2.469,0,0,1,80.08,69.253Zm0-17.3H75.138a2.471,2.471,0,0,1-2.471-2.471V44.54a2.471,2.471,0,0,1,2.471-2.471H80.08a2.469,2.469,0,0,1,2.471,2.471v4.943A2.469,2.469,0,0,1,80.08,51.954Zm-19.77,17.3H55.368A2.469,2.469,0,0,1,52.9,66.781V61.839a2.471,2.471,0,0,1,2.471-2.471H60.31a2.471,2.471,0,0,1,2.471,2.471v4.943A2.469,2.469,0,0,1,60.31,69.253Zm0-17.3H55.368A2.469,2.469,0,0,1,52.9,49.483V44.54a2.469,2.469,0,0,1,2.471-2.471H60.31a2.469,2.469,0,0,1,2.471,2.471v4.943A2.469,2.469,0,0,1,60.31,51.954Zm-19.77,34.6H35.6a2.469,2.469,0,0,1-2.471-2.471V79.138A2.469,2.469,0,0,1,35.6,76.666H40.54a2.469,2.469,0,0,1,2.471,2.471V84.08A2.469,2.469,0,0,1,40.54,86.551Zm0-17.3H35.6a2.469,2.469,0,0,1-2.471-2.471V61.839A2.471,2.471,0,0,1,35.6,59.368H40.54a2.471,2.471,0,0,1,2.471,2.471v4.943A2.469,2.469,0,0,1,40.54,69.253Zm0-17.3H35.6a2.469,2.469,0,0,1-2.471-2.471V44.54A2.469,2.469,0,0,1,35.6,42.069H40.54a2.469,2.469,0,0,1,2.471,2.471v4.943A2.469,2.469,0,0,1,40.54,51.954Zm-19.77,34.6H15.828a2.469,2.469,0,0,1-2.471-2.471V79.138a2.469,2.469,0,0,1,2.471-2.471H20.77a2.469,2.469,0,0,1,2.471,2.471V84.08A2.469,2.469,0,0,1,20.77,86.551Zm0-17.3H15.828a2.469,2.469,0,0,1-2.471-2.471V61.839a2.471,2.471,0,0,1,2.471-2.471H20.77a2.471,2.471,0,0,1,2.471,2.471v4.943A2.469,2.469,0,0,1,20.77,69.253Zm34.6,7.414H60.31a2.469,2.469,0,0,1,2.471,2.471V84.08a2.469,2.469,0,0,1-2.471,2.471H55.368A2.469,2.469,0,0,1,52.9,84.08V79.138A2.469,2.469,0,0,1,55.368,76.666Z" transform="translate(-0.5 -4.5)" fill="#fff" stroke="#cdeffe" stroke-width="1" fill-rule="evenodd"/>
</svg>
